<?xml version="1.0" encoding="iso-8859-1"?>
<!-- Generator: Adobe Illustrator 19.0.0, SVG Export Plug-In . SVG Version: 6.00 Build 0)  -->
<svg version="1.1" id="Capa_1" xmlns="http://www.w3.org/2000/svg" xmlns:xlink="http://www.w3.org/1999/xlink" x="0px" y="0px"
	 viewBox="0 0 512.001 512.001" style="enable-background:new 0 0 512.001 512.001;" xml:space="preserve">
<g>
	<path style="fill:#FF7A49;" d="M183.926,60.349c-61.188,1.349-127.072,44.155-145.492,103.847
		c-5.668,18.368-16.001,62.797,8.066,73.361c9.232,4.052,21.106-1.783,30.525-2.607c16.93-1.48,35.082,0.773,52.06,1.655
		c34.959,1.815,69.709-0.054,104.669,0.007c65.894,0.115,132.685,6.406,198.403,0.785c10.404-0.89,28.023-2.519,35.638-10.877
		c7.4-8.123,5.165-24.989,3.238-34.717c-9.629-48.61-30.941-101.611-78.854-123.916c-22.082-10.28-44.643-16.212-69.02-17.953
		c-24.944-1.782-50.263,1.396-75.275,2.293C226.389,52.999,204.01,52.252,183.926,60.349z"/>
	<path style="fill:#FF7A49;" d="M40.268,379.25c-3.098,21.034-4.469,43.779,9.937,61.408c5.304,6.491,13.083,10.935,21.187,12.964
		c16.116,4.034,33.553,2.107,49.879,3.854c22.147,2.37,44.386,2.433,66.599,1.11c19.627-1.169,38.284,6.294,57.906,6.243
		c58.782-0.151,114.986-11.302,173.325-18.337c17.939-2.163,33.221-8.972,38.154-27.309c4.004-14.883-0.027-25.458-1.456-39.78
		c-12.374-1.559-26.344,1.763-38.885,1.907c-22.21,0.255-44.425,0.144-66.574-0.957c-37.513-1.865-74.969-4.154-112.603-4.161
		c-42.598-0.007-84.821,6.44-127.176,6.093c-13.961-0.114-27.902,1.794-41.954,1.091C59.797,382.935,51.855,380.117,40.268,379.25z"
		/>
</g>
<g>
	<path style="fill:#E8643F;" d="M456.015,219.841c-18.129-5.34-38.71-3.194-57.475-4.417c-19.122-1.247-38.216-3.316-57.265-5.368
		c-38.471-4.144-77.103-6.535-115.563-10.71c-26.815-2.911-57.148-5.218-80.748-19.719c-8.266-5.079-16.234-12.437-17.512-22.577
		c-1.48-11.735,5.488-23.786,11.842-33.063c4.531-6.615,10.197-12.938,16.313-18.392c15.567-13.884,34.469-25.094,53.664-33.609
		c7.105-3.152,14.478-5.661,21.821-8.187c10.125-3.482,20.622-6.155,30.536-10.222c3.736-1.533,6.517-3.627,0.852-4.924
		c-10.862-2.487-22.1-0.607-32.818,1.678c-4.244,0.904-7.837,2.56-11.899,3.774c-5.505,1.646-11.378,2.168-16.934,3.823
		c-5.169,1.539-9.908,2.83-15.079,4.016c-4.307,0.988-8.598,2.044-12.87,3.173c-8.741,2.31-17.405,4.923-25.944,7.895
		c-33.439,11.641-66.79,29.124-89.336,57.172c-13.405,16.676-21.946,36.659-24.65,57.891c-2.208,17.341,1.677,35.689,17.638,45.335
		c19.288,11.657,47.557,8.142,69.072,8.343c25.787,0.242,51.565,1.605,77.359,0.714c26.327-0.91,52.592-2.868,78.939-3.548
		c27.818-0.718,55.624-2.121,83.454-2.081c7.336,0.011,14.685-0.072,22.03-0.291c12.286,0.318,24.578,0.632,36.866,0.847
		c12.653,0.221,25.429,1.213,37.708-2.357C463.522,232.856,463.493,222.044,456.015,219.841z"/>
	<path style="fill:#E8643F;" d="M436.697,402.515c-14.446,3.793-28.944,3.91-43.765,4.875c-15.63,1.018-31.237,2.326-46.875,3.252
		c-33.611,1.99-67.261,3.32-100.907,4.546c-32.405,1.181-64.8,2.243-97.229,1.59c-16.116-0.324-32.262-0.45-48.326-1.911
		c-16.496-1.5-32.52-4-49.137-3.685c-3.678,0.07-6.06,2.207-7.045,4.883c-4.042,0.511-6.851,3.342-8.121,6.838
		c3.314,4.963,5.705,10.71,7.356,16.615c11.017,8.022,27.117,11.463,39.689,14.199c16.733,3.641,34.006,4.784,51.095,5.125
		c34.324,0.685,68.79-1.486,103.1-2.403c39.729-1.063,79.468-2.221,119.141-4.673c18.391-1.137,36.776-4.6,54.437-9.862
		c6.266-1.867,12.855-3.722,19.024-6.327c5.302-0.901,10.51-2.21,15.52-4.202C462.118,424.432,455.805,397.499,436.697,402.515z"/>
</g>
<path style="fill:#5CBF4B;" d="M42.646,231.855c-4.666,3.272-10.644,3.49-15.695,6.153c-5.29,2.79-9.179,6.801-13.512,10.828
	c-5.928,5.508-11.858,12.701-6.941,21.126c5.148,8.821,17.482,7.855,26.455,8.081c13.736,0.345,25.584-4.308,38.54-7.98
	c7.949-2.253,12.675-2.824,20.02,0.66c8.955,4.247,14.561,9.526,24.941,10.037c19.103,0.941,33.635-18.703,52.731-11.714
	c11.639,4.26,19.472,10.884,32.622,9.164c12.391-1.621,22.695-11.194,35.079-11.745c10.945-0.487,19.618,5.567,29.586,8.88
	c14.796,4.916,24.367,2.422,38.446-3.466c13.905-5.816,19.508-3.97,32.484,1.562c16.396,6.989,25.572,4.91,41.098-2.866
	c13.592-6.807,23.771,5.163,38.026,2.439c10.267-1.962,18.309-9.876,29.226-7.77c5.396,1.041,9.565,3.685,15.176,4.34
	c7.014,0.819,14.248,0.758,21.281,0.324c7.818-0.481,20.296-2.345,22.904-11.281c2.838-9.724-7.965-23.03-15.853-28.035
	c-13.135-8.335-20.83,0.785-32.799,4.752c-4.716,1.563-10.65,2.07-15.604,3.062c-11.552,2.315-23.275,3.965-35.077,3.989
	c-19,0.038-37.988-0.801-56.956-1.845c-37.4-2.059-74.83-4.984-112.314-3.772c-34.678,1.121-69.338,0.618-104.045,2.399
	c-20.77,1.065-42.172,0.696-62.945-0.664C60.203,237.902,51.184,235.595,42.646,231.855z"/>
<path style="fill:#38AD34;" d="M498.042,237.255c-14.924-6.364-30.223-2.017-45.988-2.014c-18.419,0.003-36.757,0.716-55.162,1.395
	c-37.96,1.401-75.935,2.393-113.916,2.987c-37.252,0.582-74.468,0.65-111.72,0.167c-19.234-0.249-38.415,0.557-57.641,0.753
	c-18.048,0.183-35.093-2.15-52.881-4.679c-13.188-1.875-25.015-1.835-36.778,4.852c-7.459,4.24-18.074,12.182-12.67,21.721
	c2.191,3.867,7.087,1.635,7.58-2.053c0.764-5.718,16.831-9.512,21.471-10.033c14.413-1.62,29.255,4.077,43.501,5.626
	c32.755,3.563,66.413,0.286,99.333,0.978c67.205,1.413,134.554,0.019,201.736-1.979c36.085-1.073,72.833-3.689,108.749-1.521
	C501.876,253.948,506.046,240.668,498.042,237.255z"/>
<path style="fill:#AD514A;" d="M472.593,314.27c0.269-0.644,0.628-1.252,1.076-1.823c1.104-2.082,2.729-3.89,3.918-5.924
	c2.841-4.859,4.505-9.797,3.911-15.485c-0.184-1.763-0.96-3.445-2.076-4.848c3.831-3.685,5.083-10.531-0.855-13.278
	c-15.506-7.176-30.087-7.876-44.91,0.845c-1.361,0.801-2.706,1.641-4.059,2.462c-7.168,0.888-13.315,6.05-19.065,10.407
	c-4.404,3.338-8.983,6.384-13.482,9.513c-8.465,4.007-14.909,10.643-21.837,17.052c-8.593,7.95-18.666,15.278-29.195,20.524
	c-3.47-0.738-7.226-0.856-11.011-0.51c-0.622-1.645-1.776-3.193-3.599-4.428c-14.301-9.685-30.613-15.66-45.221-24.801
	c-7.708-4.823-14.858-10.487-22.555-15.334c-6.757-4.256-16.476-7.109-20.136-14.628c-2.607-5.355-9.352-4.805-13.236-1.706
	c-14.13,11.276-28.122,22.644-41.977,34.251c-1.9,1.592-3.833,3.141-5.761,4.696c-1.674,1.05-3.286,2.17-4.813,3.364
	c-0.639,0.055-1.287,0.173-1.945,0.409c-9.541,3.428-20.719,9.402-25.664,18.69c-0.261,0.49-0.455,0.977-0.616,1.459
	c-0.621,0.064-1.241,0.138-1.862,0.225c-11.927-3.652-26.186-8.684-36.2-16.515c-1.748-1.757-3.691-3.351-5.61-4.707
	c-0.416-0.294-0.837-0.509-1.258-0.709c-5.348-7.878-13.898-14.3-23.357-18.915c-8.783-4.285-23.154-12.27-34.92-11.954
	c-0.807-0.08-1.626-0.005-2.452,0.211c-5.139,0.702-9.63,3.262-12.704,8.824c-0.889,1.607-1.562,3.205-2.061,4.79
	c-1.255,1.708-2.332,3.228-3.137,4.275c-7.157,9.308-11.831,22.812,0.072,30.595c5.65,3.694,11.957,4.545,16.724,9.717
	c4.627,5.02,8.241,10.717,14.498,13.929c6.174,3.169,12.857,3.079,19.206,0.621c1.617-0.626,4.597-2.518,7.759-4.311
	c7.875,1.515,15.847,2.451,24.047,2.231c0.169-0.005,0.322-0.042,0.486-0.055c9.572,12.053,32.573,9.364,48.734,4.426
	c4.362,10.31,22.278,5.581,30.322,1.243c2.653-1.43,5.442-2.895,8.282-4.415c1.649-0.424,3.271-0.904,4.842-1.409
	c0.215,2.001,1.068,3.931,2.528,5.47c8.645,9.112,24.968,4.467,35.421,1.707c3.431-0.906,6.799-1.961,10.144-3.076
	c8.807,3.763,20.33,1.895,29.382,0.495c4.954,1.681,9.802,1.82,14.682,1.23c6.754,0.408,13.819-0.835,20.676-2.416
	c11.984,9.804,34.319,2.066,45.517-7.145c1.238,0.294,2.476,0.589,3.704,0.933c1.768,0.496,3.91,1.621,5.746,1.883
	c-0.173,4.93,3.467,9.862,9.145,9.825c7.466-0.048,13.957-2.142,20.946-4.516c9.262-3.146,14.332-1.279,23.624,0.487
	c12.489,2.374,23.852-0.825,33.899-7.08c4.28-1.028,8.528-2.132,12.572-3.343c8.699-2.605,19.917-8.285,20.826-18.676
	C490.574,319.174,480.825,315.328,472.593,314.27z"/>
<g>
	<path style="fill:#9C413E;" d="M476.072,324.415c-1.654,0.688-3.202,1.512-4.712,2.385c-3.578,0.167-7.181,2.218-8.711,5.322
		c-1.436-1.575-3.57-2.799-6.725-3.48c-7.327-1.583-12.521,1.382-17.437,5.118c-0.249-0.34-0.498-0.679-0.8-1.019
		c-4.899-5.521-12.238-4.826-18.362-1.88c-3.334,1.604-6.338,3.782-9.334,5.96c0.017-0.404,0.025-0.76,0.023-1.033
		c-0.024-3.658-2.861-8.466-6.868-9.021c-7.051-0.977-12.648,0.184-18.944,3.593c-0.843,0.456-1.698,0.999-2.563,1.583
		c-2.165-2.999-6.036-4.858-10.021-3.861c-7.001,1.751-13.017,5.654-19.024,9.497c-0.788,0.504-1.627,1.075-2.499,1.671
		c-1.163-4.862-6.371-8.1-11.683-6.958c-5.296,1.138-10.464,3.104-15.64,5.038c0.002-0.063,0.012-0.118,0.014-0.182
		c0.091-3.725-2.897-8.168-6.753-8.869c-8.102-1.474-15.265,1.407-22.246,4.842c0.02-5.302-6.211-10.409-11.911-9.469
		c-7.495,1.236-13.088,6.268-19.797,9.429c-0.65,0.306-1.328,0.559-1.988,0.847c2.159-5.612-2.685-12.589-8.549-13.046
		c4.173-1.639,8.161-3.87,11.749-5.967c7.261-4.243,0.806-15.237-6.58-11.258c-4.882,2.629-10.457,5.69-16.02,3.521
		c-4.081-1.592-6.311-3.69-11.114-3.252c-6.844,0.624-16.706,8.266-12.37,16.009c0.146,0.261,0.322,0.489,0.492,0.723
		c-1.165,0.405-2.313,1.061-3.383,2.077c-2.05,1.947-4.145,4.551-5.896,7.459c-2.287,2.157-4.923,3.994-7.544,5.604
		c-0.325,0.2-0.663,0.399-0.996,0.599c-2.235-3.414-6.287-5.72-10.454-4.307c-3.627,1.23-6.897,2.872-10.172,4.848
		c-1.602,0.966-7.145,5.319-8.237,5.154c-0.015-0.002-3.833-5.163-5.005-6.04c-2.713-2.03-5.821-3.095-9.239-3.087
		c-7.568,0.016-14.203,5.592-21.528,7.106c-9.6,1.984-20.096,1.345-24.309-8.507c-1.844-4.31-7.922-4.935-11.536-3.025
		c-0.51,0.27-1.028,0.548-1.546,0.825c-2.341-1.27-5.228-1.631-8.236-0.281c-8.435,3.786-16.799,7.244-25.977,7.88
		c0.327-1.284,0.955-2.871,1.788-4.729c2.314-5.161-0.238-13.524-7.323-12.762c-10.009,1.076-23.227,7.742-32.32,0.562
		c-3.662-2.891-8.113,0.592-6.301,4.861c4.731,11.144,16.041,12.84,27.11,12.439c-0.968,8.016,1.392,15.505,11.062,19.167
		c6.042,2.288,11.866,1.658,17.502-0.267c8.853-1.123,17.489-4.985,25.59-9.249c11.411,13.486,33.746,15.112,49.438,7.801
		c1.113-0.518,4.234-3.095,5.498-2.953c0.663,0.075,0.574,1.357,2.008,2.401c3.527,2.568,5.156,5.278,9.924,5.974
		c4.723,0.69,8.887-0.621,12.878-2.555c3.222,1.518,7.241,1.787,10.783,1.388c5.623-0.634,11.656-2.891,17.293-6.15
		c0.619,0.51,1.31,0.99,2.083,1.432c4.936,2.831,10.53,2.978,16.194,1.582c5.538,5.374,15.621,2.94,22.215,1.359
		c3.533-0.847,7.007-1.929,10.43-3.156c1.102,2.351,3.074,4.281,5.564,4.619c9.175,1.246,16.303-1.169,24.697-4.693
		c0.485-0.203,0.999-0.445,1.526-0.701c0.523,4.314,3.805,8.165,8.961,8.109c7.44-0.08,14.393-1.946,21.262-4.199
		c0.572,3.097,2.617,5.774,6.431,6.637c12.381,2.804,21.212-2.929,30.247-8.79c1.666,2.647,4.482,4.543,7.705,4.216
		c6.297-0.639,11.405-2.657,16.828-5.893c1.212-0.723,2.779-1.958,4.5-3.27c-0.276,2.136,0.005,4.387,1.409,6.901
		c3.694,6.615,11.466,7.135,17.823,4.781c4.414-1.635,8.317-4.428,12.148-7.161c1.453,4.725,6.254,8.275,11.592,6.584
		c4.731-1.499,8.586-3.724,12.586-6.632c0.551-0.4,1.089-0.825,1.626-1.255c1.74,5.599,8.008,8.574,14.225,5.719
		c5.861-2.691,10.7-6.863,15.734-10.769c0.521-0.058,1.03-0.149,1.502-0.314c6.548-2.281,9.648-5.215,12.138-11.661
		C490.502,329.853,482.675,321.668,476.072,324.415z M232.429,332.758c-1.72,1.061-3.482,2.026-5.283,2.862
		c0.424-0.684,0.829-1.371,1.193-2.063c1.936-3.682,1.139-7.363-0.967-9.938c1.638-0.507,2.998-1.434,4.745-1.639
		c-0.135,0.016,2.053,0.531,2.907,0.746c3.568,0.897,7.197,0.732,10.765-0.061C242.25,325.058,236.977,328.579,232.429,332.758z"/>
	<path style="fill:#9C413E;" d="M469.171,296.35c-2.691,2.267-5.772,4.063-8.982,5.493c-0.433,0.193-1.327,0.422-2.257,0.68
		c-0.564-4.793-5.161-8.551-10.323-7.144c-4.983,1.358-8.795,3.802-13.061,6.633c-4.465,2.964-8.715,4.112-13.665,6.085
		c-3.76,1.498-5.477,5.923-2.409,9.126c9.167,9.571,17.251,3.004,25.688-2.133c2.244,2.836,5.86,4.312,11.015,3.068
		c7.881-1.902,15.486-9.184,20.849-14.954C480.331,298.574,473.899,292.369,469.171,296.35z"/>
</g>
<g>
	<path style="fill:#FFD45C;" d="M206.087,278.054c-1.193,0.343-2.37,0.758-3.549,1.163c-1.034-0.978-2.352-1.633-3.842-1.661
		c-6.576-0.122-13.073-1.003-19.362-2.999c-4.921-1.562-9.09-5.069-14.004-6.439c-9.779-2.726-19.455,4.045-27.791,8.186
		c-4.849,2.409-10.248,5.183-15.834,4.854c-6.436-0.38-13.023-3.91-18.943-6.145c-11.384-4.298-22.581-7.469-34.859-6.646
		c-2.84,0.19-5.131,1.666-6.596,3.674c-2.354-0.863-5.071-0.672-6.893,1.415c-0.207,0.237-0.414,0.474-0.62,0.71
		c-2.131,2.44-2.987,7.078,0,9.394c13.229,10.256,29.44,12.764,44.092,20.259c8.116,4.152,16.044,8.839,23.573,13.982
		c5.092,3.479,8.873,9.174,14.26,12.056c10.567,5.652,19.778-5.362,26.891-11.619c12.055-10.603,24.312-22.875,39.143-29.392
		c1.38-0.606,2.229-1.562,2.669-2.661c1.18-0.447,2.363-0.885,3.529-1.361C212.01,283.167,210.555,276.768,206.087,278.054z"/>
	<path style="fill:#FFD45C;" d="M409.387,269.865c-13.196-0.773-26.59-0.621-39.709,1.162c-12.569,1.708-25.962,10.064-38.587,5.949
		c-10.006-3.261-18.096-5.843-28.84-5.558c-9.222,0.245-17.433,1.994-24.785,7.71c-0.505,0.393-0.912,0.82-1.274,1.262
		c-6.666-2.154-13.603-3.549-20.947-3.774c-3.303-0.102-3.563,4.445-0.741,5.472c14.193,5.165,28.855,14.089,41.601,22.157
		c12.508,7.917,26.974,22.064,42.293,23.516c13.783,1.306,25.076-8.918,34.659-17.493c6.398-5.726,12.415-11.941,19.667-16.622
		c6.431-4.152,13.714-6.686,20.173-10.816C418.843,279.027,416.285,270.269,409.387,269.865z"/>
</g>
<g>
	<path style="fill:#FFBE4A;" d="M126.7,304.088c-11.156-4.973-22.392-9.922-33.673-14.602c-4.219-1.75-39.386-20.238-40.196-7.368
		c-0.155,2.467,2.314,3.68,4.357,3.146c0.116,0.141,0.256,0.335,0.441,0.653c0.442,0.761,3.306,1.867,4.176,2.382
		c2.181,1.292,4.278,2.71,6.541,3.853c9.671,4.887,19.832,8.846,29.511,13.776c7.605,3.873,15.438,7.249,23.058,11.086
		c6.911,3.48,13.716,11.195,21.576,11.375c2.946,0.068,5.565-2.582,5.516-5.516C147.834,312.408,134.885,307.737,126.7,304.088z"/>
	<path style="fill:#FFBE4A;" d="M344.065,313.304c-13.299-6.761-26.687-15.087-40.895-19.753
		c-7.045-2.314-14.422-3.534-21.406-6.025c-4.457-1.589-15.228-3.731-17.615-7.719c-1.701-2.842-5.849-1.51-6.022,1.631
		c-0.64,11.642,17.498,19.028,26.152,22.551c9.08,3.697,17.761,6.739,26.254,11.76c8.61,5.091,17.393,10.056,26.773,13.585
		c3.423,1.288,8.263-0.82,9.905-4.031c0.345-0.674,0.652-1.374,0.884-2.095C349.218,319.715,347.393,314.997,344.065,313.304z"/>
</g>
<path style="fill:#EB3840;" d="M470.212,359.578c0.489-3.199-0.04-7.694-2.538-8.673c-3.035-1.19-8.545,3.254-10.832,4.804
	c-4.428,3.001-8.887,5.11-14.176,6.422c-9.802,2.431-16.969,0.688-26.31-1.493c-8.162-1.906-14.405,4.247-22.382,4.547
	c-7.589,0.286-19.66-1.476-25.772-6.318c-3.471-2.75-7.795-3.203-11.251,0c-14.561,13.499-38.383-5.74-53.823,3.466
	c-1.582,0.943-2.643,2.259-3.284,3.72c-5.98,0.443-13.528-1.459-17.823-2.058c-6.81-0.95-14.002-2.224-20.829-1.363
	c-0.673-0.035-1.347-0.055-2.024-0.058c-2.512-1.983-6.038-2.761-9.459-0.98c-5.647,2.941-14.444,2.159-20.717,1.786
	c-4.221-0.251-8.488-0.667-12.629-1.558c-1.643-0.354-3.225-0.847-4.842-1.284c-0.557-0.15-0.909-0.312-1.149-0.453
	c-2.209-6.023-10.986-6.029-14.303-0.857c-2.288,3.568-7.544,5.309-12.838,7c-5.255,0-10.506-0.198-15.691-0.746
	c-7.867-0.831-14.695-6.447-22.723-5.619c-5.902,0.608-11.47,4.055-16.645,7.139c-0.445-0.215-0.897-0.426-1.413-0.584
	c-5.076-1.554-9.921-2.798-14.281-5.883c-2.947-2.085-5.237-4.643-8.688-5.987c-4.918-1.915-10.653-0.915-15.041,2.036
	c-5.851,2.556-11.617,5.266-18.077,5.932c-5.536,0.57-14.836,1.511-19.219-2.538c-3.266-3.018-7.399-1.748-9.549,0.933
	c-5.54,0.027-12.281,6.149-4.449,11.861c10.379,7.569,17.872,11.576,31.259,10.502c1.029-0.083,2.09-0.181,3.162-0.288
	c2.398,0.105,4.833,0.108,7.261,0.03c4.582,0.894,8.753,0.461,13.46,0.28c6.76-0.26,13.553,0.705,20.299,1.065
	c12.886,0.688,25.925,1.053,38.814,0.314c3.149-0.181,5.568-2.171,6.936-4.698c6.083,1.616,12.306,1.973,18.752,2.273
	c14.514,0.676,32.589,1.922,47.566-1.874c10.382,1.155,25.562,2.42,34.09-4.559c5.44,5.214,13.569,5.333,20.809,5.933
	c2.916,0.242,5.841,0.366,8.769,0.426c11.224,4.133,23.4,3.869,35.215,3.343c12.922-0.576,25.71-0.26,38.634-0.034
	c20.575,0.359,41.549-1.415,61.904-4.437c3.023-0.449,6.131-0.904,9.259-1.428c9.761-0.169,19.97-2.379,26.609-8.193
	c3.066-1.98,7.399-6.116,9.2-9.321C469.791,361.506,470.054,360.609,470.212,359.578z"/>
<g>
	<path style="fill:#CF242C;" d="M244.957,371.285c-16.461-3.579-35.662,0.679-52.494,0.854c-17.695,0.184-35.307,0.107-52.952,1.76
		c-17.03,1.595-34.432,4.973-51.518,2.223c-16.184-2.605-31.468-8.943-48.064-8.645c-3.942,0.071-5.096,6.279-0.963,7.114
		c16.761,3.385,32.736,10.537,49.652,13.026c17.148,2.523,33.897-0.785,50.893-2.782c18.176-2.136,36.653-1.715,54.917-1.195
		c16.323,0.465,36.46,3.6,51.661-3.697C249.725,378.196,248.809,372.122,244.957,371.285z"/>
	<path style="fill:#CF242C;" d="M444.695,369.765c-13.886-3.078-29.441-0.747-43.556-0.117c-15.41,0.688-30.818,1.466-46.242,1.746
		c-29.629,0.538-59.297-2.653-88.785,0.937c-3.589,0.437-3.713,5.377,0,5.683c29.539,2.436,59.103,5.165,88.785,4.873
		c14.751-0.146,29.492-0.762,44.232-1.308c14.833-0.549,31.077,0.957,45.566-2.357C449.349,378.157,449.392,370.806,444.695,369.765
		z"/>
</g>
<path style="fill:#FFD45C;" d="M293.245,413.849c1.832-7.813,2.906-18.895-1.164-24.652c-2.778-3.93-7.485-5.133-12.015-5.66
	c-0.98-0.114-5.905-0.095-9.821-0.531c-1.268-0.915-2.618-1.714-4.052-2.367c0.038-1.177-0.216-2.337-0.877-3.26l-0.719-1.003
	c-2.497-3.486-7.207-3.45-9.739-1.092c-2.025,0.758-3.802,1.838-5.738,3.24c-1.531,1.11-3.084,2.436-4.511,3.657
	c-0.142,0.094-0.284,0.189-0.426,0.283c-0.329,0.202-0.643,0.425-0.963,0.64c-0.14,0.093-0.279,0.186-0.419,0.279
	c-0.246,0.091-0.456,0.173-0.647,0.25c-4.789-4.221-10.711-0.917-12.326,4.198c-1.916,0.678-3.409,2.382-3.409,5.187
	c0,4.343,0.487,8.389,1.262,12.649c1.263,6.937,10.197,6.378,13.557,1.772c0.003-0.004,0.005-0.008,0.008-0.012
	c4.02-2.706,8.23-4.617,12.857-6.135c3.103-1.018,6.147-1.781,8.793-3.249c1.142,1.525,2.027,3.327,2.679,5.135
	c-0.32,7.884-1.299,16.065,4.9,21.935c-0.124,1.437-0.228,2.886-0.355,4.345c-0.54,6.259,6.655,8.606,11.324,6.498
	c1.831-0.827,3.263-2.158,4.427-3.732c3.601-1.292,6.842-4.115,8.41-7.434C296.021,421.108,295.767,416.833,293.245,413.849z"/>
<g>
	<path style="fill:#FFBE4A;" d="M238.426,394.577c-1.744-3.02-3.141-5.859-6.521-7.279c-2.043-0.858-5.052,0.943-5.409,3.071
		c-0.525,3.136-0.466,6.318,0.201,9.436c1.146,5.355,7.855,11.383,12.998,6.276C243.374,402.428,240.461,398.101,238.426,394.577z"
		/>
	<path style="fill:#FFBE4A;" d="M279.52,416.172c-2.483-4.307-7.82-8.595-7.925-13.83c-0.09-4.454-7.274-5.842-8.099-1.096
		c-0.993,5.711-0.867,11.017,1.205,16.491c1.987,5.252,4.014,11.268,8.055,15.32c2.38,2.387,6.116,1.654,7.876-1.015
		C283.871,427.128,282.278,420.955,279.52,416.172z"/>
</g>
<path d="M475.673,221.654c1.388-6.849,0.919-14.551-0.133-21.858c2.241-28.535-6.12-57.566-21.26-81.83
	c-18.368-29.438-46.528-49.617-79.257-60.363c-38.597-12.673-80.607-14.605-120.898-12.468
	c-39.411,2.09-79.925,6.793-117.376,19.768c-34.399,11.917-68.78,30.712-88.828,62.105c-9.285,14.539-15.69,31.182-18.791,48.138
	c-2.804,15.331-4.805,34.297,0.229,49.39c0.828,2.481,1.946,4.592,3.274,6.427c-15.021,3.649-31.091,14.98-32.518,30.081
	c-1.758,18.586,17.027,23.703,31.859,22.591c-9.206,5.834-16.061,16.737-18.68,26.497c-1.983,7.39-1.885,15.818,2.426,22.403
	c2.005,3.063,4.894,5.522,8.121,7.216c4.425,2.322,12.984,1.517,15.229,5.877c0.702,1.364,0.123,4.577,0.583,6.223
	c0.321,1.152,0.812,2.3,1.403,3.397c-11.93,6.273-11.51,16.736-4.549,24.228c-0.08,0.16-0.168,0.314-0.201,0.507
	c-4.329,25.389-8.231,56.785,19.182,70.43c14.352,7.143,30.874,8.117,46.558,9.698c21.246,2.142,42.562,3.01,63.885,3.993
	c43.924,2.024,87.685,4.433,131.682,3.152c21.565-0.628,43.012-2.301,64.508-4.05c19.444-1.582,39.297-2.423,58.494-6.09
	c16.398-3.132,30.806-12.065,37.512-27.821c6.397-15.031,5.748-31.958,3.617-47.875c8.552-4.747,13.815-12.597,13.391-25.943
	c-0.014-0.44-0.075-0.847-0.17-1.23c9.158-2.851,17.315-8.85,20.168-18.666c1.588-5.464,1.185-11.764-2.373-16.387
	c-1.662-2.159-3.939-3.598-6.296-4.9c-4.766-2.635-4.431-3.433-2.677-8.366c3.571-10.046,5.791-20.983,0.281-29.882
	c12.503-0.838,25.211-4.962,27.558-17.982C515.072,238.943,494.111,222.228,475.673,221.654z M40.048,191.486
	c1.029-15.998,5.226-32.096,12.35-46.468c15.65-31.571,44.909-50.843,76.852-63.71c23.021-9.274,47.396-14.694,71.913-18.175
	c23.949-3.4,47.11-5.949,71.391-5.879c15.759,0.046,31.236,0.686,46.936,2.008c6.342,0.534,12.587,1.237,18.775,2.742
	c36.571,8.892,71.925,21.686,96.082,52.264c11.124,14.08,20.796,30.462,25.791,47.76c5.174,17.92,4.697,36.167,5.544,54.502
	c-1.899,5.619-5.223,10.123-11.094,12.005c-10.904,3.495-23.187,1.886-34.462,2.23c-41.185,1.255-82.313,0.21-123.505,0.639
	c-41.808,0.436-83.61,1.386-125.419,1.773c-20.293,0.188-40.616,0.447-60.906-0.055c-18.731-0.463-39.283-0.226-57.566-4.691
	C36.98,224.586,39.205,204.602,40.048,191.486z M43.515,358.852c2.983,3.57,7.073,5.807,11.573,6.928
	c9.514,2.372,21.263,0.082,30.253-3.422c3.411-1.33,10.149-7.285,13.411-6.981c2.757,0.257,3.627,3.394,5.201,5.206
	c2.465,2.836,5.683,5.012,9.085,6.566c5.484,2.504,11.873,3.174,17.829,2.546c2.798-0.296,5.374-1.003,7.989-2.06
	c2.465-0.996,8.904-5.841,9.829-5.96c0.215-0.028,0.322-0.069,0.372-0.115c0.121,0.062,0.261,0.131,0.448,0.216
	c0.657,0.301,2.277,2.008,3.155,2.683c2.431,1.867,5.079,3.535,7.933,4.672c5.833,2.324,11.901,2.271,17.956,0.802
	c5.631-1.365,11.597-3.875,15.97-7.742c3.114-2.754,3.301-4.466,7.295-2.063c2.513,1.512,4.18,3.575,6.901,4.852
	c12.821,6.021,28.247,3.865,40.364-2.469c0.76-0.398,1.73-1.037,2.768-1.687c-2.359,6.172-3.059,12.704-11.267,14.939
	c-9.566,2.605-20.249,2.894-30.095,3.137c-22.269,0.55-44.731-1.352-66.946,0.789c-9.617,0.927-19.127,2.941-28.801,3.246
	c-10.502,0.331-21.077-1.571-31.557-2.249c-9.712-0.629-20.132-0.044-29.626-2.27c-4.234-0.993-10.269-2.805-12.961-6.532
	C37.232,367.233,40.408,362.807,43.515,358.852z M288.897,425.377c-3.264,12.871-12.651,9.055-17.796,0.21
	c-3.828-6.579-2.967-12.056-3.272-19.263c-0.306-7.274-5.328-18.579-14.512-13.221c-6.172,3.6-6.399,13.193-14.539,14.362
	c-9.641,1.384-11.287-10.975-10.788-19.207c8.187-0.741,16.813-2.09,22.96-5.887c2.616-1.616,4.646-3.783,6.223-6.275
	c0.332,0.605,0.706,1.207,1.17,1.805c4.946,6.368,13.983,8.114,21.482,9.148c4.493,0.62,8.978,1.175,13.461,1.698
	C286.552,399.372,291.968,413.27,288.897,425.377z M447.783,420.761c-5.123,16.199-19.199,22.691-34.934,25.181
	c-36.473,5.771-74.437,7.843-111.314,9.144c-36.59,1.291-73.229,0.525-109.781-1.434c-36.138-1.938-72.838-1.837-108.69-7.249
	c-16.091-2.429-33.024-7.182-38.137-24.436c-3.64-12.28-2.317-25.745-3.661-38.518c1.746,1.141,3.677,2.132,5.767,2.917
	c11.299,4.239,24.304,3.197,36.147,3.552c14.803,0.444,29.372,2.339,44.162,0.8c29.785-3.099,59.333,0.911,89.078-1.576
	c1.993-0.167,4.14-0.309,6.373-0.469c-3.056,10.95,1.408,25.846,13.869,27.246c7.605,0.854,13.741-5.004,17.601-10.88
	c1.553-2.365,0.844-4.12,3.871-2.33c2.58,1.526,1.884,3.395,1.82,5.996c-0.092,3.761-0.586,7.388,0.152,11.115
	c2.121,10.706,12.988,27.646,25.991,22.67c7.455-2.853,10.921-11.523,11.813-18.842c1.47-12.059-1.292-22.572,3.802-33.98
	c18.258,1.852,36.508,2.78,55.009,2.246c27.621-0.796,56.385-0.785,83.79-4.397c3.284-0.433,6.42-0.999,9.396-1.711
	C450.606,397.478,451.323,409.567,447.783,420.761z M450.671,374.801c-9.507,2.474-19.351,3.149-29.132,3.568
	c-20.966,0.896-41.906,2.266-62.872,3.143c-21.586,0.903-42.719,0.197-64.179-2.255c-6.588-0.752-13.258-0.885-19.775-2.182
	c-5.241-1.043-9.487-2.133-11.588-7.231c-0.861-2.089-1.217-4.507-1.44-6.924c0.054-0.343,0.124-0.686,0.172-1.027
	c1.072,1.09,2.116,2.161,2.965,2.711c5.641,3.659,12.18,5.626,18.929,5.432c6.462-0.185,12.652-2.618,18.265-5.671
	c3.422-1.861,4.983-3.989,8.708-2.912c2.757,0.797,5.708,3.983,8.501,5.148c11.909,4.968,25.064,2.379,35.325-4.667
	c0.973-0.668,2.286-1.926,3.417-2.287c5.543-1.768,0.919-0.87,3.884,0.491c2.338,1.073,4.286,4.06,6.698,5.453
	c5.592,3.228,12.33,4.618,18.771,4.282c6.015-0.314,11.544-2.797,16.945-5.242c4.443-2.012,6.654-3.252,11.334-1.247
	c3.687,1.579,6.039,3.404,10.088,4.314c7.137,1.605,15.765,1.412,22.76-0.869c6.685-2.18,9.866-9.16,16.172-10.575
	C464.55,366.362,461.096,372.088,450.671,374.801z M483.324,334.77c-5.958,12.361-19.067,7.878-28.638,13.038
	c-6.474,3.49-9.299,7.888-17.473,8.546c-8.421,0.677-13.366-2.109-20.781-4.76c-10.392-3.716-18.278,3.617-28.092,5.498
	c-6.861,1.315-13.509-0.036-18.914-4.528c-3.349-2.784-5.456-5.163-10.203-5.117c-4.459,0.044-8.265,2.66-11.987,4.767
	c-6.023,3.409-12.066,5.6-19.171,5.033c-9.415-0.752-14.578-8.633-24.487-6.016c-6.344,1.675-11.835,5.377-18.47,6.315
	c-9.117,1.289-14.012-2.801-21.175-7.343c-8.66-5.491-17.371,1.272-26.191,3.88c-5.707,1.687-11.779,2.492-17.744,1.832
	c-7.459-0.826-10.028-5.114-16.052-8.084c-10.313-5.085-16.862,6.255-25.878,9.288c-8.034,2.703-13.792,1.43-20.633-3.275
	c-2.025-1.392-2.899-2.377-5.41-2.747c-4.263-0.628-9.202,1.831-12.988,3.429c-8.344,3.522-19.341,5.946-26.828-1.207
	c-6.334-6.051-7.825-11.601-17.796-8.231c-8.516,2.878-15.662,7.06-24.703,8.699c-5.129,0.93-12.931,2.072-17.213-1.821
	c-4.544-4.131-1.357-11.076-4.874-15.782c-5.56-7.439-16.882-1.204-23.017-8.499c-11.893-14.142,8.421-41.201,23.473-42.979
	c0.002,0,0.005-0.001,0.007-0.002c14.48,10.463,30.674,17.978,46.579,26.346c9.588,5.045,19.142,10.396,27.782,16.96
	c6.041,4.59,12.492,10.67,20.393,11.474c7.398,0.753,12.809-3.947,18.042-8.463c8.67-7.483,17.535-14.711,26.549-21.776
	c9.932-7.784,19.01-16.955,29.4-24.108c6.035-4.155,13.054-6.911,19.171-10.917c16.697,11.039,31.159,24.682,48.814,34.627
	c10.912,6.147,21.983,11.967,32.484,18.807c7.094,4.621,14.952,10.239,23.805,9.911c15.999-0.592,28.385-18.23,39.743-27.557
	c9.773-8.025,19.628-16.501,30.771-22.58c9.369-5.111,19.252-8.365,27.65-15.02c1.349-0.124,2.707-0.215,4.088-0.229
	c8.241-0.08,16.649,2.706,24.883,3.506c0.835,0.081,1.708,0.156,2.604,0.224c0.209,0.844,0.64,1.69,1.408,2.48
	c5.008,5.153,5.033,12.051,3.11,18.613c-1.359,4.636-5.261,8.772-5.607,13.67C468.869,323.231,489.817,321.301,483.324,334.77z
	 M52.619,279.93c2.579-0.671,5.148-1.391,7.708-2.146c8.383-2.473,18.669-7.541,27.465-5.314c6.015,1.523,10.81,5.813,16.305,8.453
	c5.881,2.826,12.477,3.936,18.966,3.489c5.887-0.405,11.433-2.285,16.681-4.888c6.611-3.278,12.899-8.708,20.572-8.594
	c7.118,0.107,12.589,4.929,18.718,7.986c5.414,2.7,11.051,4.138,17.117,4.006c3.926-0.086,7.711-0.874,11.425-1.981
	c-4.233,2.936-8.384,6.055-12.496,9.379c-8.676,7.013-17.788,13.43-26.662,20.187c-6.446,4.909-15.798,15.848-23.81,16.784
	c-7.753,0.905-16.073-7.746-22.374-11.817c-8.344-5.39-17.153-10.032-26.06-14.41C81.692,293.945,67.22,286.796,52.619,279.93z
	 M253.486,276.904c1.126,0.581,2.249,1.16,3.377,1.701c6.136,2.942,12.574,5.107,19.393,5.664c6.846,0.56,13.653-0.573,20.047-3.004
	c7.207-2.741,14.44-7.521,22.403-6.655c7.045,0.767,13.104,5.692,19.935,7.508c6.314,1.679,12.976,1.148,19.178-0.754
	c6.405-1.964,12.11-5.792,18.532-7.666c8.682-2.534,16.318,1.333,24.776,2.942c3.589,0.683,7.045,0.779,10.431,0.542
	c-9.827,4.772-19.181,10.438-28.332,17.084c-7.725,5.61-15.516,11.254-22.71,17.538c-5.742,5.016-13.729,14.496-22.192,13.245
	c-9.447-1.397-18.917-10.112-27.215-14.563c-10.375-5.565-20.923-10.807-31.24-16.483
	C270.761,288.992,262.459,282.17,253.486,276.904z M494.288,261.733c-10.874,5.263-26.795,2.824-38.148,0.434
	c-10.478-2.205-19.721-1.595-30.188,0.664c-6.132,1.324-12.197,3.14-18.55,2.62c-7.127-0.583-13.626-3.727-20.635-4.764
	c-10.857-1.608-19.61,3.556-29.387,7.21c-6.144,2.296-11.859,3.287-18.165,1.252c-6.486-2.094-12.037-6.143-18.897-7.127
	c-10.618-1.523-19.398,3.877-29.053,7.148c-15.784,5.348-26.097-1.218-40.339-6.799c-23.008-9.016-43.829,15.991-66.105,6.642
	c-8.798-3.693-15.915-10.012-26.046-9.67c-9.912,0.334-17.513,6.922-26.124,10.871c-8.68,3.98-17.891,4.631-26.66,0.584
	c-3.772-1.74-7.255-4.03-11.11-5.614c-8.212-3.374-16.082-2.912-24.603-0.965c-15.418,3.523-32.803,10.061-48.801,7.486
	c-10.167-1.637-12.349-9.575-6.378-17.683c5.614-7.622,15.433-13.917,24.863-16.579c6.075,3.449,13.674,4.708,21.085,5.639
	c22.685,2.853,45.517,3.634,68.362,3.671c47.782,0.078,95.556-1.051,143.33-1.777c50.867-0.774,101.794-0.812,152.653-1.193
	c13.386-0.1,31.606,1.75,42.502-7.788c1.301-1.139,2.411-2.4,3.377-3.749c7.98,1.613,16.191,4.307,22.062,9.921
	C499.149,247.728,503.214,257.412,494.288,261.733z"/>
<g>
</g>
<g>
</g>
<g>
</g>
<g>
</g>
<g>
</g>
<g>
</g>
<g>
</g>
<g>
</g>
<g>
</g>
<g>
</g>
<g>
</g>
<g>
</g>
<g>
</g>
<g>
</g>
<g>
</g>
</svg>
